# xmcd
#
# Track frame offsets:
#	150
#	18832
#	33007
#	51892
#	64400
#	83500
#	106310
#	121465
#	143257
#	169175
#	186120
#	209222
#	238172
#
# Disc length: 3459 seconds
#
# Revision: 0
# Processed by: cddbd v1.5.2PL0 Copyright (c) Steve Scherf et al.
# Submitted via: VUPlayer 2.48
#
DISCID=ad0d810d
DTITLE=אלון אולארצ'יק - בשקט עם ברק חנוך
DYEAR=1998
DGENRE=Acoustic
TTITLE0=ילד מזדקן
TTITLE1=ילדה
TTITLE2=שני חלקים בתוך השלם
TTITLE3=גלים גלים
TTITLE4=ירח תות
TTITLE5=כל הליל אני בגנך
TTITLE6=נערה במשקפיים
TTITLE7=בואי נגיד שאני שלך
TTITLE8=ניו יורק
TTITLE9=בא לשכונה בחור חדש
TTITLE10=מה שמעתי
TTITLE11=כל דבר קט
TTITLE12=הסוף (instrumental)
EXTD=(P)(C) NMC Music
EXTT0=טייק #2
EXTT1=טייק #4
EXTT2=טייק #7
EXTT3=טייק #2
EXTT4=טייק #7
EXTT5=טייק #5
EXTT6=טייק #3
EXTT7=טייק #1
EXTT8=טייק #3
EXTT9=טייק #6
EXTT10=טייק #6
EXTT11=טייק #11
EXTT12=טייק #11
PLAYORDER=
